<svg width="160" height="160" viewBox="0 0 160 160" fill="none" xmlns="http://www.w3.org/2000/svg">
<g clip-path="url(#clip0_454_28)">
<path d="M50.3755 117.731L46.0602 122.028C45.8075 122.298 45.5018 122.513 45.1622 122.661C44.8225 122.809 44.456 122.887 44.0853 122.888C43.7145 122.887 43.348 122.809 43.0084 122.661C42.6687 122.513 42.3631 122.298 42.1103 122.028L1.89014 81.9765C1.61857 81.7253 1.40195 81.4209 1.25383 81.0825C1.1057 80.7441 1.02925 80.379 1.02925 80.0098C1.02925 79.6407 1.1057 79.2755 1.25383 78.9371C1.40195 78.5988 1.61857 78.2944 1.89014 78.0432L42.0757 37.9773C42.3285 37.7072 42.6342 37.4915 42.9738 37.3435C43.3135 37.1956 43.68 37.1184 44.0507 37.1168C44.4214 37.1184 44.7879 37.1956 45.1276 37.3435C45.4673 37.4915 45.7729 37.7072 46.0257 37.9773L50.341 42.2744C50.6125 42.5257 50.8292 42.83 50.9773 43.1684C51.1254 43.5068 51.2019 43.872 51.2019 44.2411C51.2019 44.6102 51.1254 44.9754 50.9773 45.3138C50.8292 45.6522 50.6125 45.9565 50.341 46.2078L16.4209 79.9853L50.341 113.763C50.8693 114.254 51.2001 114.953 51.2001 115.729V115.784C51.2009 116.148 51.1279 116.508 50.9854 116.844C50.8428 117.179 50.6337 117.482 50.3706 117.735L50.3755 117.731ZM101.374 26.0298L69.1821 136.979C68.9778 137.686 68.5026 138.285 67.8589 138.646L67.8441 138.651C67.5418 138.836 67.2016 138.951 66.8487 138.988C66.4957 139.024 66.139 138.981 65.8049 138.862L65.8198 138.867L60.4676 137.407C59.7576 137.204 59.1564 136.73 58.7938 136.089L58.7889 136.075C58.6019 135.757 58.4861 135.402 58.4495 135.036C58.4128 134.669 58.4562 134.299 58.5766 133.951L58.5716 133.97L90.7636 23.0208C90.9678 22.3138 91.4431 21.7151 92.0868 21.354L92.1016 21.3491C92.4039 21.1641 92.7441 21.049 93.097 21.0124C93.45 20.9759 93.8066 21.0186 94.1408 21.1377L94.1259 21.1328L99.4781 22.593C100.204 22.8044 100.796 23.2813 101.152 23.9107L101.157 23.9254C101.344 24.2433 101.46 24.5977 101.496 24.9643C101.533 25.3309 101.489 25.7011 101.369 26.0494L101.374 26.0298ZM158.075 81.9765L117.855 122.023C117.602 122.296 117.295 122.513 116.954 122.662C116.612 122.811 116.243 122.888 115.87 122.888C115.497 122.888 115.128 122.811 114.787 122.662C114.445 122.513 114.138 122.296 113.885 122.023L109.57 117.726C109.296 117.474 109.077 117.168 108.928 116.828C108.778 116.488 108.701 116.12 108.701 115.749C108.701 115.378 108.778 115.01 108.928 114.67C109.077 114.33 109.296 114.024 109.57 113.773L143.49 79.9951L109.57 46.2176C109.296 45.9658 109.077 45.6601 108.928 45.3199C108.778 44.9798 108.701 44.6124 108.701 44.2411C108.701 43.8697 108.778 43.5024 108.928 43.1622C109.077 42.8221 109.296 42.5164 109.57 42.2646L113.885 37.9674C114.138 37.6945 114.445 37.4767 114.787 37.3277C115.128 37.1788 115.497 37.1018 115.87 37.1018C116.243 37.1018 116.612 37.1788 116.954 37.3277C117.295 37.4767 117.602 37.6945 117.855 37.9674L158.075 78.0186C158.349 78.2704 158.568 78.5761 158.718 78.9162C158.867 79.2564 158.945 79.6237 158.945 79.9951C158.945 80.3664 158.867 80.7338 158.718 81.074C158.568 81.4141 158.349 81.7198 158.075 81.9716V81.9765Z" fill="white"/>
</g>
<defs>
<clipPath id="clip0_454_28">
<rect width="158" height="118" fill="white" transform="translate(1 21)"/>
</clipPath>
</defs>
</svg>
